<svg id="Layer_3" enable-background="new 0 0 64 64" height="512" viewBox="0 0 64 64" width="512" xmlns="http://www.w3.org/2000/svg"><g><path d="m57.781 35.856-12.291-3.234c-.877-.231-1.49-1.026-1.49-1.934v-1.024c3.1-1.786 5-5.05 5-8.663 1.654 0 3-1.346 3-3 0-1.47-1.062-2.695-2.501-2.951l.569-1.319c1.028-2.382.844-5.132-.49-7.356-.846-1.41-2.083-2.515-3.579-3.195l-2.79-1.271c-2.972-1.354-6.502-1.137-9.31.518-3.005-.874-6.391-.306-8.94 1.606l-1.45 1.14c-1.621.389-3.028 1.418-3.89 2.854-1.102 1.836-1.188 4.075-.23 5.99l1.022 2.043c-1.373.272-2.411 1.487-2.411 2.94 0 1.654 1.346 3 3 3 0 3.613 1.9 6.877 5 8.663v1.024c0 .908-.613 1.703-1.491 1.935l-12.291 3.234c-3.072.808-5.218 3.592-5.218 6.769v18.375c0 .553.448 1 1 1h46 8c.552 0 1-.447 1-1v-19.375c0-3.177-2.146-5.961-5.219-6.769zm-4.781 25.144h-44v-17.375c0-2.27 1.533-4.257 3.728-4.835l12.291-3.234c1.755-.462 2.981-2.053 2.981-3.868v-1.623c0-.38-.215-.727-.555-.896-2.742-1.362-4.445-4.109-4.445-7.169v-1c0-.553-.448-1-1-1h-1c-.551 0-1-.448-1-1s.449-1 1-1c.565 0 1.08-.287 1.376-.768s.323-1.068.071-1.574l-1.269-2.538c-.65-1.3-.592-2.82.156-4.066.614-1.023 1.638-1.743 2.807-1.974.155-.031.3-.098.424-.195l1.612-1.268c2.323-1.742 5.564-2.091 8.202-.89l2.791 1.271c1.125.512 2.056 1.344 2.693 2.404 1.004 1.674 1.142 3.742.369 5.534l-.779 1.805c-.216.502-.166 1.074.135 1.53.3.457.806.729 1.412.729.551 0 1 .448 1 1s-.449 1-1 1h-1c-.552 0-1 .447-1 1v1c0 3.06-1.703 5.807-4.445 7.169-.34.169-.555.516-.555.895v1.623c0 1.815 1.226 3.406 2.982 3.868l12.291 3.234c2.194.579 3.727 2.566 3.727 4.836zm8 0h-6v-17.375c0-3.177-2.146-5.961-5.219-6.769l-12.291-3.234c-.877-.231-1.49-1.026-1.49-1.934v-1.024c3.1-1.786 5-5.05 5-8.663 1.654 0 3-1.346 3-3 0-1.47-1.062-2.695-2.501-2.951l.569-1.319c1.028-2.382.844-5.132-.49-7.356-.846-1.41-2.083-2.515-3.579-3.195l-1.602-.73c1.936-.657 4.101-.578 5.982.279l2.791 1.271c1.125.512 2.056 1.344 2.693 2.404 1.004 1.674 1.142 3.742.369 5.534l-.779 1.805c-.216.502-.166 1.074.135 1.53.3.455.806.727 1.412.727.551 0 1 .448 1 1s-.449 1-1 1h-1c-.552 0-1 .447-1 1v1c0 3.06-1.703 5.807-4.445 7.169-.34.169-.555.516-.555.895v1.623c0 1.815 1.226 3.406 2.982 3.868l12.291 3.234c2.194.579 3.727 2.566 3.727 4.836z"/><path d="m7 34c0 .553.448 1 1 1h4c.552 0 1-.447 1-1v-5h5c.552 0 1-.447 1-1v-4c0-.553-.448-1-1-1h-5v-5c0-.553-.448-1-1-1h-4c-.552 0-1 .447-1 1v5h-5c-.552 0-1 .447-1 1v4c0 .553.448 1 1 1h5zm-4-7v-2h5c.552 0 1-.447 1-1v-5h2v5c0 .553.448 1 1 1h5v2h-5c-.552 0-1 .447-1 1v5h-2v-5c0-.553-.448-1-1-1z"/></g></svg>