<svg id="Capa_1" enable-background="new 0 0 512 512" height="512" viewBox="0 0 512 512" width="512" xmlns="http://www.w3.org/2000/svg"><g><path d="m490.647 133.435c-.101-.103-128.128-129.127-128.02-129.019-2.927-2.938-6.813-4.416-10.627-4.416-13.006 0-293.619 0-305 0-16.542 0-30 13.458-30 30v452c0 16.542 13.458 30 30 30h418c16.542 0 30-13.458 30-30v-338c0-3.958-1.564-7.755-4.353-10.565zm-217.647-103.435v66c0 8.284 6.716 15 15 15s15-6.716 15-15v-66h34v115h-162v-115zm192 452h-418v-452h98v130c0 8.284 6.716 15 15 15h192c8.284 0 15-6.716 15-15v-108.587l98 98.766z"/><path d="m96 241c-8.284 0-15 6.716-15 15v176c0 8.284 6.716 15 15 15h320c8.284 0 15-6.716 15-15v-176c0-8.284-6.716-15-15-15zm305 176h-290v-146h290z"/><path d="m160 335h48c8.284 0 15-6.716 15-15s-6.716-15-15-15h-48c-8.284 0-15 6.716-15 15s6.716 15 15 15z"/></g></svg>