<?xml version="1.0"?>
<svg xmlns="http://www.w3.org/2000/svg" height="512px" viewBox="-6 0 446 446.31134" width="512px" class=""><g><path d="m372.664062 266.691406c44.085938 16.238282 69.042969 62.898438 58.074219 108.582032-10.964843 45.683593-54.378906 75.929687-101.03125 70.390624-46.652343-5.539062-81.777343-45.113281-81.742187-92.09375 0-2.710937.121094-5.378906.351562-8.03125 2.527344-28.753906 18.3125-54.691406 42.691406-70.148437 24.378907-15.460937 54.570313-18.675781 81.65625-8.699219zm0 0" fill="#f8ec7d" data-original="#F8EC7D" class="active-path" style="fill:#E48E66" data-old_color="#f8ec7d"/><path d="m124.554688 32.25h185.601562c11.046875-.003906 20.003906 8.953125 20 20v209.320312c-43.789062 4.949219-78.019531 40.070313-81.839844 83.96875-.230468 2.652344-.351562 5.320313-.351562 8.03125-.03125 21.402344 7.382812 42.148438 20.972656 58.679688h-248.78125c-11.046875.003906-20.003906-8.953125-20-20v-340c-.003906-11.046875 8.953125-20.003906 20-20zm0 0" fill="#e48e66" data-original="#E48E66" class="" style="fill:#F8EC7D" data-old_color="#e48e66"/><path d="m376.625 347.570312h-30.058594v-30.058593c0-3.316407-2.6875-6-6-6s-6 2.683593-6 6v30.058593h-30.0625c-3.3125 0-6 2.6875-6 6s2.6875 6 6 6h30.0625v30.058594c0 3.316406 2.6875 6 6 6s6-2.683594 6-6v-30.058594h30.058594c3.3125 0 6-2.6875 6-6s-2.6875-6-6-6zm0 0" fill="#e48e66" data-original="#E48E66" class="" style="fill:#F8EC7D" data-old_color="#e48e66"/><g fill="#f8ec7d"><path d="m49.265625 60.230469c-3.3125 0-6-2.6875-6-6v-48.230469c0-3.3125 2.6875-6 6-6s6 2.6875 6 6v48.230469c0 3.3125-2.6875 6-6 6zm0 0" data-original="#F8EC7D" class="active-path" style="fill:#E48E66" data-old_color="#F8EC7D"/><path d="m124.554688 60.230469c-3.3125 0-6-2.6875-6-6v-48.230469c0-3.3125 2.6875-6 6-6 3.316406 0 6 2.6875 6 6v48.230469c0 3.3125-2.683594 6-6 6zm0 0" data-original="#F8EC7D" class="active-path" style="fill:#E48E66" data-old_color="#F8EC7D"/><path d="m199.835938 60.230469c-3.3125 0-6-2.6875-6-6v-48.230469c0-3.3125 2.6875-6 6-6s6 2.6875 6 6v48.230469c0 3.3125-2.6875 6-6 6zm0 0" data-original="#F8EC7D" class="active-path" style="fill:#E48E66" data-old_color="#F8EC7D"/><path d="m275.117188 60.230469c-3.316407 0-6-2.6875-6-6v-48.230469c0-3.3125 2.683593-6 6-6 3.3125 0 6 2.6875 6 6v48.230469c0 3.3125-2.6875 6-6 6zm0 0" data-original="#F8EC7D" class="active-path" style="fill:#E48E66" data-old_color="#F8EC7D"/><path d="m227.535156 348.25h-172.378906c-3.3125 0-6-2.6875-6-6s2.6875-6 6-6h172.378906c3.3125 0 6 2.6875 6 6s-2.6875 6-6 6zm0 0" data-original="#F8EC7D" class="active-path" style="fill:#E48E66" data-old_color="#F8EC7D"/><path d="m275.15625 238.320312h-220c-3.3125 0-6-2.6875-6-6s2.6875-6 6-6h220c3.3125 0 6 2.6875 6 6s-2.6875 6-6 6zm0 0" data-original="#F8EC7D" class="active-path" style="fill:#E48E66" data-old_color="#F8EC7D"/><path d="m275.15625 183.351562h-220c-3.3125 0-6-2.6875-6-6 0-3.316406 2.6875-6 6-6h220c3.3125 0 6 2.683594 6 6 0 3.3125-2.6875 6-6 6zm0 0" data-original="#F8EC7D" class="active-path" style="fill:#E48E66" data-old_color="#F8EC7D"/><path d="m250.15625 293.28125h-195c-3.3125 0-6-2.6875-6-6 0-3.316406 2.6875-6 6-6h195c3.3125 0 6 2.683594 6 6 0 3.3125-2.6875 6-6 6zm0 0" data-original="#F8EC7D" class="active-path" style="fill:#E48E66" data-old_color="#F8EC7D"/></g><path d="m295.117188 74.398438c0 11.046874-8.957032 20-20 20-11.046876 0-20-8.953126-20-20 0-11.042969 8.953124-20 20-20 11.042968 0 20 8.957031 20 20zm0 0" fill="#6fe3ff" data-original="#6FE3FF" class="" style="fill:#6FE3FF"/><path d="m219.835938 74.398438c0 11.046874-8.953126 20-20 20-11.046876 0-20-8.953126-20-20 0-11.042969 8.953124-20 20-20 11.046874 0 20 8.957031 20 20zm0 0" fill="#6fe3ff" data-original="#6FE3FF" class="" style="fill:#6FE3FF"/><path d="m144.554688 74.398438c0 11.046874-8.953126 20-20 20-11.042969 0-20-8.953126-20-20 0-11.042969 8.957031-20 20-20 11.046874 0 20 8.957031 20 20zm0 0" fill="#6fe3ff" data-original="#6FE3FF" class="" style="fill:#6FE3FF"/><path d="m69.265625 74.398438c0 11.046874-8.953125 20-20 20s-20-8.953126-20-20c0-11.042969 8.953125-20 20-20s20 8.957031 20 20zm0 0" fill="#6fe3ff" data-original="#6FE3FF" class="" style="fill:#6FE3FF"/></g> </svg>
