<?xml version="1.0" encoding="iso-8859-1"?>
<!-- Generator: Adobe Illustrator 19.0.0, SVG Export Plug-In . SVG Version: 6.00 Build 0)  -->
<svg version="1.1" id="Capa_1" xmlns="http://www.w3.org/2000/svg" xmlns:xlink="http://www.w3.org/1999/xlink" x="0px" y="0px"
	 viewBox="0 0 507.312 507.312" style="enable-background:new 0 0 507.312 507.312;" xml:space="preserve">
<g>
	<g>
		<g>
			<path d="M352.96,0l-22.624,22.624l22.624,22.624l-45.248,45.264L273.776,56.56l-67.888,67.888l56.56,56.576l-56.56,56.576
				l22.624,22.624l56.56-56.576l56.576,56.576l67.888-67.904L375.6,158.384l45.264-45.248l22.624,22.624l22.624-22.624L352.96,0z
				 M330.336,158.4l33.936,33.936l-22.624,22.656l-90.512-90.544l22.64-22.64l33.936,33.952L375.6,67.872l22.624,22.64
				L330.336,158.4z"/>
			<path d="M361.2,475.312h-160v-128h-128v-192h96v-32h-128v246.624l137.376,137.376H393.2v-96h-32V475.312z M169.2,452.688
				l-73.376-73.376H169.2V452.688z"/>
			<rect x="361.2" y="283.312" width="32" height="32"/>
			<rect x="361.2" y="347.312" width="32" height="32"/>
		</g>
	</g>
</g>
<g>
</g>
<g>
</g>
<g>
</g>
<g>
</g>
<g>
</g>
<g>
</g>
<g>
</g>
<g>
</g>
<g>
</g>
<g>
</g>
<g>
</g>
<g>
</g>
<g>
</g>
<g>
</g>
<g>
</g>
</svg>
