<svg viewBox="-13 0 512 512" xmlns="http://www.w3.org/2000/svg"><path d="m294.222656 422.777344c-24.601562 0-44.609375 20.011718-44.609375 44.613281 0 24.597656 20.011719 44.609375 44.609375 44.609375s44.609375-20.011719 44.609375-44.609375-20.011719-44.613281-44.609375-44.613281zm0 59.222656c-8.058594 0-14.609375-6.554688-14.609375-14.609375s6.550781-14.609375 14.609375-14.609375c8.054688 0 14.609375 6.554688 14.609375 14.609375s-6.554687 14.609375-14.609375 14.609375zm0 0"/><path d="m44.609375 346.246094c-24.597656 0-44.609375 20.011718-44.609375 44.609375 0 24.597656 20.011719 44.613281 44.609375 44.613281s44.609375-20.015625 44.609375-44.613281c0-24.597657-20.011719-44.609375-44.609375-44.609375zm0 59.222656c-8.054687 0-14.609375-6.554688-14.609375-14.609375 0-8.058594 6.554688-14.613281 14.609375-14.613281s14.609375 6.554687 14.609375 14.613281c0 8.054687-6.554688 14.609375-14.609375 14.609375zm0 0"/><path d="m441.699219 323.730469c-24.597657 0-44.609375 20.011719-44.609375 44.609375s20.011718 44.609375 44.609375 44.609375c24.597656 0 44.609375-20.011719 44.609375-44.609375s-20.011719-44.609375-44.609375-44.609375zm0 59.222656c-8.058594 0-14.609375-6.554687-14.609375-14.609375 0-8.058594 6.554687-14.613281 14.609375-14.613281 8.054687 0 14.609375 6.554687 14.609375 14.613281 0 8.054688-6.554688 14.609375-14.609375 14.609375zm0 0"/><path d="m415.648438 139.007812c13.035156-10.566406 20.757812-26.445312 20.757812-43.773437 0-31.128906-25.324219-56.453125-56.453125-56.453125-15.609375 0-30.429687 6.550781-40.980469 17.65625-10.800781-3.355469-22.035156-5.050781-33.519531-5.050781-9.914063 0-19.65625 1.269531-29.101563 3.78125-20.230468-33.902344-57.027343-55.167969-97.140624-55.167969-62.351563 0-113.078126 50.726562-113.078126 113.078125 0 22.847656 6.929688 45.082031 19.710938 63.785156-12.78125 18.707031-19.710938 40.941407-19.710938 63.789063 0 44.890625 26.390626 85.074218 66.695313 103.164062v113.964844c0 22.820312 18.566406 41.382812 41.386719 41.382812 22.816406 0 41.378906-18.5625 41.378906-41.382812v-110.042969c17.078125-5.789062 32.527344-15.597656 45.1875-28.777343 11.839844-12.328126 20.632812-26.980469 25.882812-42.980469 3.792969.636719 7.621094 1.078125 11.472657 1.324219v71.289062c0 22.816406 18.566406 41.382812 41.382812 41.382812 22.820313 0 41.382813-18.566406 41.382813-41.382812v-99.898438c24.003906-21.460937 37.628906-51.757812 37.628906-84.230468 0-8.621094-.96875-17.144532-2.882812-25.457032zm-24.070313-20.007812-11.890625 5.835938 4.320312 12.523437c3 8.699219 4.519532 17.816406 4.519532 27.101563 0 25.703124-11.617188 49.554687-31.878906 65.433593l-5.746094 4.503907v114.191406c0 6.277344-5.105469 11.382812-11.382813 11.382812-6.277343 0-11.382812-5.105468-11.382812-11.382812v-102.554688l-16.15625 1.25c-10.785157.835938-21.527344-.398437-31.679688-3.621094l-16.304687-5.171874-3 16.839843c-5.882813 33.050781-30.871094 59.113281-63.660156 66.40625l-11.742188 2.613281v133.429688c0 6.277344-5.105469 11.382812-11.382812 11.382812-6.277344 0-11.382813-5.105468-11.382813-11.382812v-134.949219l-10.203125-3.441406c-33.789062-11.402344-56.492188-43.046875-56.492188-78.738281 0-19.8125 7.09375-39 19.96875-54.023438l8.367188-9.761718-8.367188-9.761719c-12.878906-15.027344-19.96875-34.214844-19.96875-54.027344 0-45.808594 37.269532-83.078125 83.078126-83.078125 32.859374 0 62.691406 19.425781 76.003906 49.488281l5.863281 13.246094 13.441406-5.398437c9.832031-3.949219 20.242188-5.949219 30.929688-5.949219 11.386719 0 22.417969 2.261719 32.785156 6.71875l12.175781 5.238281 6.695313-11.4375c4.742187-8.097656 13.492187-13.125 22.84375-13.125 14.589843 0 26.457031 11.867188 26.457031 26.453125 0 10.171875-5.679688 19.277344-14.828125 23.765625zm0 0"/></svg>